<svg width="35" height="36" viewBox="0 0 35 36" fill="none" xmlns="http://www.w3.org/2000/svg">
<path d="M3.81882 10.7083C1.54312 12.0892 0.845922 12.9059 0.667415 14.4628C0.426131 16.4568 0.665783 18.9345 0.667415 19.4715C0.669047 20.0084 10.3029 19.5373 10.3017 19.7576C10.3515 18.7569 10.479 18.8256 9.93792 17.2086C9.39684 15.5916 8.40631 14.6481 8.40631 14.6481C6.29063 12.514 5.61399 11.9931 3.81882 10.7083Z" fill="#800080" stroke="#800080" stroke-width="0.122438"/>
<path d="M16.9055 17.7805C16.1357 23.5385 15.4882 27.3807 12.1115 30.2124C9.64006 32.3204 7.96737 32.9736 4.85596 33.9024C7.56531 32.0827 8.74535 30.8671 10.5105 28.5044C12.7246 23.807 12.7485 20.5954 10.8246 15.5273C10.1509 14.434 9.61993 13.8266 8.69295 12.7424L14.0782 14.6137C15.7462 12.0484 17.209 10.9282 19.315 8.87921C21.2707 7.5166 22.4408 6.54693 24.5431 5.61487C22.3214 7.24013 21.0635 8.6042 19.4084 11.0838C18.0466 13.5486 17.5595 15.0384 16.9055 17.7805Z" fill="#800080" stroke="#800080" stroke-width="0.122438"/>
<path d="M21.9973 9.28872C27.5372 10.4216 30.384 10.5047 34.2558 8.08154C34.4515 10.3065 33.4013 14.1773 33.5 16.5425C32.2608 18.4753 31.3416 19.0539 29.1305 20.0972H19.4034L19.2123 33.212L5.82202 35.4143C7.50837 34.127 13.9511 30.8343 15.2244 28.3815C16.9989 24.9632 17.0265 21.6299 18.1785 17.12C19.0726 13.5073 20.0729 11.9452 21.9973 9.28872Z" fill="#800080" stroke="#800080" stroke-width="0.122438"/>
<path d="M10.9058 0.585693L11.1415 5.82759C14.0206 5.33971 15.4812 5.50011 16.7513 9.5574L19.3912 7.59169C19.9121 3.1382 18.9236 2.05854 16.7513 0.585693H10.9058Z" fill="#800080" stroke="#800080" stroke-width="0.122438"/>
<ellipse cx="13.0073" cy="9.55789" rx="2.65623" ry="2.84" fill="#800080"/>
</svg>
