<svg width="40" height="40" viewBox="0 0 40 40" fill="none" xmlns="http://www.w3.org/2000/svg">
<path d="M10 29.9999H23.3333M5 36.6666H35M23.3333 36.6666C26.4275 36.6666 29.395 35.4374 31.5829 33.2495C33.7708 31.0616 35 28.0941 35 24.9999C35 21.9057 33.7708 18.9383 31.5829 16.7503C29.395 14.5624 26.4275 13.3333 23.3333 13.3333H21.6667M15 23.3333H18.3333M20 9.99992V4.99992C20 4.55789 19.8244 4.13397 19.5118 3.82141C19.1993 3.50885 18.7754 3.33325 18.3333 3.33325H15C14.558 3.33325 14.134 3.50885 13.8215 3.82141C13.5089 4.13397 13.3333 4.55789 13.3333 4.99992V9.99992M15 19.9999C14.1159 19.9999 13.2681 19.6487 12.643 19.0236C12.0179 18.3985 11.6667 17.5506 11.6667 16.6666V9.99992H21.6667V16.6666C21.6667 17.5506 21.3155 18.3985 20.6904 19.0236C20.0652 19.6487 19.2174 19.9999 18.3333 19.9999H15Z" stroke="#800080" stroke-width="2" stroke-linecap="round" stroke-linejoin="round"/>
</svg>
