<svg width="31" height="31" viewBox="0 0 31 31" fill="none" xmlns="http://www.w3.org/2000/svg">
<g clip-path="url(#clip0_30_238)">
<path d="M15.5262 2.73254C14.1962 2.73254 14.7625 4.70629 14.8675 5.34879C14.8675 5.38004 14.975 9.81129 14.995 10.8225C15.1992 10.7684 15.3979 10.7184 15.5912 10.6725L15.9925 10.5725C16.0113 9.59504 16.11 5.36504 16.1125 5.34254C16.2 4.65379 16.8975 2.73254 15.5262 2.73254ZM15.1375 17.7825C15.2863 17.7325 15.435 17.6888 15.5688 17.645L15.8562 17.5563C15.8562 17.2713 15.9412 13.3413 15.9562 12.6263C15.6467 12.6975 15.3412 12.7856 15.0413 12.89L15.1375 17.7825ZM15.6275 19.2738C15.5775 19.2925 15.4475 19.3475 15.365 19.375C15.2838 19.4038 15.17 19.45 15.17 19.4813C15.17 19.5113 15.2525 24.0063 15.2525 24.105C15.2525 25.035 15.7262 25.0413 15.7262 24.105C15.7262 24.0388 15.8212 19.21 15.8212 19.21L15.6275 19.2738ZM14.5588 6.59254C14.2003 6.70507 13.8516 6.84679 13.5163 7.01629C13.145 7.13879 12.6237 7.16504 12.0787 7.75129C11.902 7.95472 11.7363 8.16753 11.5825 8.38879C11.42 8.62254 11.4113 9.00129 11.285 9.20504C11.1125 9.50254 11.1537 9.66754 11.1537 9.66754V9.67629C11.1216 9.81503 11.0525 9.94247 10.9537 10.045C10.8724 10.1475 10.7657 10.2269 10.6443 10.2753C10.5228 10.3238 10.3907 10.3396 10.2612 10.3213C10.5087 10.4463 10.8562 10.2725 10.8562 10.2725C10.8042 10.434 10.7604 10.5979 10.725 10.7638C11.0025 10.1375 11.2575 9.90879 11.3362 9.84379C11.455 9.87129 11.7013 9.86004 12.16 9.59754C12.6775 9.30004 13.4563 8.81629 13.6763 8.51004C13.9074 8.1946 14.2259 7.95383 14.5925 7.81754C14.5775 7.34671 14.5662 6.93838 14.5588 6.59254ZM12.3737 8.54629L12.105 8.60379L12.4263 8.08754L12.8012 8.10004L12.3737 8.54629ZM13.9738 19.3463C13.9738 19.9288 14.405 20.2388 14.835 20.4875C14.835 20.3888 14.8175 19.4863 14.8175 19.4713C14.8263 19.2913 15 19.1825 15.1425 19.115C15.3652 19.0174 15.5926 18.9306 15.8237 18.855C15.9525 18.81 16.0612 18.7675 16.1825 18.7313C17.045 18.4713 18.045 18.1363 18.045 17.0938C18.045 16.0538 17.1888 15.6063 16.2588 15.29C16.2588 15.625 16.2425 16.115 16.235 16.4525C16.6313 16.6013 16.8925 16.7963 16.8925 17.095C16.8925 17.47 16.4912 17.69 16.2062 17.7975C16.0906 17.8408 15.9739 17.8813 15.8562 17.9188C15.6183 17.9901 15.3827 18.0694 15.15 18.1563C15.0309 18.2003 14.9141 18.2504 14.8 18.3063C14.39 18.5113 13.9725 18.8138 13.9738 19.3463ZM19.6925 9.15879C19.6925 8.09254 18.9188 6.90879 17.0225 6.49004C16.8311 6.45631 16.6378 6.43377 16.4438 6.42254C16.4438 6.58379 16.4312 6.95254 16.4312 6.95254C16.4312 7.06879 16.4187 7.49504 16.4163 7.58754C16.539 7.59521 16.661 7.61192 16.7812 7.63754C17.8837 7.90129 18.2775 8.53129 18.2775 9.15879C18.2775 10.1713 17.4125 10.555 16.3438 10.8425L15.9912 10.935C15.6687 11.0163 15.3363 11.0925 15.0075 11.1813L14.6575 11.2813C13.4788 11.64 12.4637 12.2088 12.4637 13.6613C12.4637 15.1138 13.6213 15.6463 14.7513 15.9938L14.7262 14.7413C14.2275 14.5075 13.8763 14.2 13.8763 13.6813C13.8763 13.1638 14.1962 12.8688 14.6862 12.64C14.8002 12.5893 14.9166 12.5442 15.035 12.505C15.3408 12.406 15.6506 12.3201 15.9638 12.2475L16.3162 12.1625C17.9075 11.7913 19.6925 11.2925 19.6925 9.15879ZM16.1325 21.0788C16.6675 21.35 17.1625 21.725 17.3687 22.435C17.46 21.26 16.8 20.75 16.1475 20.4063L16.1325 21.0788ZM24.9 7.57879C25.475 8.26254 26.4788 8.66629 27.0662 9.35254C26.645 7.32379 25.0788 5.66879 23.2288 5.27254C24.1325 5.95254 24.3275 6.89754 24.9 7.57879ZM2.655 12.72C3.93 9.94504 5.8325 10.5325 6.6375 7.89004C6.19125 8.70004 4.1075 9.04254 3.14 11.1213C3.6325 9.88629 3.385 7.99629 4.21875 6.97754C1.7275 8.81504 2.7875 11.7875 2.655 12.72ZM4.96375 19.375C5.1925 20.455 4.5175 22.015 5.58875 23.505C4.48125 22.265 2.13625 21.9488 1.18125 20.0625C2.37125 24.675 5.49625 23.7225 6.89375 24.725C5.73875 23.065 6.68375 21.9625 4.96375 19.375ZM4.605 22.2688C3.9225 19.6938 5.13875 18.8013 4.20875 16.3313C4.1125 17.7238 3.18375 18.4025 3.81 20.9438C2.705 18.7925 0.995 17.9888 0.5 16.51C0.53375 20.5538 3.78375 21.1538 4.605 22.2688ZM9.595 26.5838C8.63875 25.2588 9.2975 24.5113 6.605 22.1075C7.1725 22.985 6.58625 24.0888 8.39875 25.805C6.625 24.7638 4.18 25.21 2.99875 23.81C5.02625 27.6888 8.58625 26.1063 9.595 26.5875V26.5838ZM22.6012 25.8063C24.4137 24.0888 23.8262 22.9788 24.395 22.1063C21.7075 24.5113 22.3613 25.26 21.405 26.5838C22.4138 26.1013 25.9738 27.6838 27.9988 23.81C26.8213 25.2125 24.3737 24.7638 22.6012 25.81V25.8063ZM25.4113 23.5013C26.4788 22.0138 25.8075 20.4513 26.0363 19.3713C24.3163 21.9588 25.2612 23.0613 24.1025 24.7275C25.5075 23.7263 28.62 24.675 29.815 20.065C28.86 21.9488 26.5188 22.265 25.4113 23.505V23.5013ZM21.1175 26.7663C20.1582 26.5079 19.1728 26.3582 18.18 26.32C17.2661 26.2989 16.3566 26.4538 15.5013 26.7763C14.6463 26.4539 13.7372 26.299 12.8238 26.32C11.8305 26.3581 10.8447 26.5078 9.885 26.7663C8.2675 27.1963 6.87125 27.5288 5.6525 26.9163C6.82 27.9575 8.18125 28.3213 10.15 28.1063C11.7875 27.9313 13.1125 27.11 14.6562 27.1225H14.7175C13.7463 27.6084 12.8806 28.2813 12.17 29.1025L12.9137 29.2025C12.9137 29.2025 13.6988 27.6275 15.5013 27.215C17.305 27.6275 18.0888 29.2025 18.0888 29.2025L18.8325 29.1025C18.121 28.2849 17.2553 27.6155 16.285 27.1325H16.3475C17.8913 27.12 19.2138 27.9413 20.8512 28.1163C22.82 28.3288 24.1825 27.9588 25.3512 26.9263C24.1325 27.535 22.735 27.2013 21.1175 26.7713V26.7663ZM4.31875 13.5388C3.6525 14.8188 2.6175 15.1113 2.73125 17.76C2.16875 15.405 0.8325 14.535 0.85 13.0325C-0.07875 16.945 2.4025 17.41 3.04 19.05C2.94625 16.7 4.445 16.225 4.31875 13.5375M5.25 10.5175C5.01875 10.8425 4.85625 10.98 4.2375 11.49C3.30796 12.2268 2.66902 13.2687 2.43375 14.4313C2.4975 12.9988 1.6125 10.9375 2.2 9.43504C-0.08 12.6563 2.33125 14.585 2.41625 15.7525C3.00875 13.5075 4.3675 13.49 5.25 10.5188M28.5638 14.4325C28.3278 13.2712 27.69 12.2302 26.7625 11.4925C26.1438 10.9825 25.9813 10.8438 25.75 10.52C26.6313 13.495 27.9912 13.5075 28.575 15.7538C28.6612 14.5875 31.0725 12.6575 28.79 9.43629C29.385 10.9388 28.5 12.9988 28.565 14.4338M30.5 16.5175C30.0037 17.9963 28.295 18.7988 27.1887 20.9563C27.815 18.41 26.8912 17.7313 26.79 16.3438C25.8612 18.8175 27.0875 19.7063 26.395 22.2813C27.2175 21.155 30.4675 20.555 30.5012 16.5113L30.5 16.5175ZM26.6875 13.54C26.56 16.2275 28.0612 16.7025 27.9662 19.045C28.6038 17.4075 31.0913 16.9413 30.1562 13.0288C30.1737 14.5288 28.8375 15.4088 28.28 17.7475C28.3838 15.1125 27.3487 14.82 26.6862 13.54M6.10125 7.58754C6.6775 6.90379 6.8725 5.96254 7.77375 5.28129C5.92375 5.67754 4.3525 7.33379 3.93625 9.36129C4.51625 8.66754 5.52125 8.26504 6.09625 7.58004L6.10125 7.58754ZM24.3675 7.89754C25.1725 10.5413 27.075 9.95379 28.3487 12.7275C28.2162 11.795 29.2775 8.82254 26.7862 6.98504C27.62 8.00629 27.3738 9.89379 27.865 11.1288C26.8938 9.04254 24.815 8.70004 24.3613 7.89004L24.3675 7.89754ZM17.905 9.39129C17.4172 9.191 16.9061 9.05324 16.3837 8.98129V9.32129C16.8638 9.39218 17.3335 9.52104 17.7825 9.70504C17.8437 9.60948 17.8857 9.50291 17.9062 9.39129M17.5212 6.11754L17.6225 6.02629L17.43 5.94504L16.9212 5.93504L16.7887 6.02629L16.4913 6.00129V6.07379C16.6667 6.08291 16.8415 6.10127 17.015 6.12879L17.2625 6.10754L17.5212 6.11754ZM16.535 17.09C16.535 17.0038 16.4212 16.9188 16.2512 16.8388H16.22C16.22 16.9088 16.22 17.2538 16.21 17.4225C16.42 17.3275 16.535 17.2263 16.535 17.09ZM10.6425 10.6188C10.6518 10.5553 10.666 10.4926 10.685 10.4313C10.6165 10.4467 10.5464 10.4539 10.4762 10.4525L10.6425 10.6188ZM15.5112 25.585C18.1666 25.5769 20.7178 24.5514 22.64 22.7194C24.5621 20.8874 25.709 18.3884 25.8447 15.7365C25.9803 13.0846 25.0944 10.4816 23.3691 8.46308C21.6439 6.44456 19.2106 5.16405 16.57 4.88504C16.57 4.90504 16.57 4.92629 16.5575 4.94504L16.5025 5.21754C18.7817 5.4397 20.9155 6.43736 22.5475 8.04379L21.4013 9.19004L21.445 8.98754L21.295 8.92254L21.0912 8.91004L21.1338 8.77754L20.9963 8.30879L20.7087 7.99629L19.8175 7.52379L19.74 7.60504L19.5775 7.65254C19.8831 8.09517 20.0482 8.61966 20.0513 9.15754V9.36129L20.4975 9.91879L20.2887 9.96629L20.4263 10.175L20.0362 10.565L19.8787 10.2675C19.8056 10.4743 19.7056 10.6706 19.5813 10.8513L19.6688 10.9325L18.4625 12.1388C18.3898 12.0691 18.3143 12.0024 18.2362 11.9388C18.1195 11.9916 18.0011 12.0408 17.8813 12.0863L17.9838 12.1675L17.9237 12.2275L17.7738 12.3063L17.7225 12.4563L17.635 12.3688L17.38 12.4525L17.45 12.565L17.625 12.5175L17.74 12.5275L17.7487 12.465L17.8363 12.42L17.8638 12.3675L18.0212 12.3225H18.145C18.17 12.3442 18.1938 12.3663 18.2163 12.3888L17.7313 12.85L17.6963 12.8L17.1963 12.8813L17.0837 12.9938L16.975 13.0063L17.285 12.7088L17.175 12.6538L16.885 13.0413L16.97 13.0313V13.1813L17.075 13.2213L17.0963 13.3713L16.9212 13.3363L16.74 13.3688L16.2938 13.1438L16.2588 14.915C17.3 15.2625 18.3937 15.765 18.3937 17.0875C18.3976 17.3639 18.3314 17.6368 18.2014 17.8807C18.0713 18.1247 17.8816 18.3317 17.65 18.4825L17.6275 18.4975L17.595 18.52C17.175 18.7963 16.6362 18.945 16.17 19.0913L16.1562 20.0163C16.9 20.385 17.8 20.9225 17.7162 22.46C17.7062 22.8375 17.5588 22.9413 17.4325 22.9763C16.9936 23.0874 16.5455 23.1585 16.0938 23.1888V23.5263C18.0328 23.3931 19.8639 22.5846 21.2687 21.2413L22.4725 22.4463C20.6095 24.2412 18.1247 25.2465 15.5377 25.2518C12.9506 25.2572 10.4617 24.2623 8.59125 22.475L9.79625 21.27C11.1867 22.5866 12.9891 23.3827 14.8988 23.5238V23.1863C13.077 23.0473 11.3583 22.287 10.03 21.0325L10.3512 20.71L10.7987 20.76L11.0338 20.5075L11.6487 20.5288L11.74 20.3163L11.7175 20.225C12.6284 20.9231 13.7139 21.3569 14.855 21.4788V21.14C13.5914 20.9986 12.4066 20.4553 11.475 19.59L12.6812 18.3825C12.9751 18.6456 13.304 18.8665 13.6588 19.0388C13.685 18.9283 13.7262 18.8219 13.7812 18.7225C13.4683 18.5706 13.178 18.3758 12.9188 18.1438L14.13 16.935C14.3238 17.0893 14.5417 17.2105 14.775 17.2938V16.9313C14.6328 16.8689 14.4988 16.7892 14.3762 16.6938L14.7175 16.3538C14.5967 16.3176 14.4766 16.2789 14.3575 16.2375L14.1275 16.4663C14.0123 16.3369 13.9155 16.1922 13.84 16.0363C13.6329 15.9469 13.4335 15.8408 13.2437 15.7188C12.892 15.5064 12.6025 15.2051 12.4044 14.8452C12.2062 14.4853 12.1064 14.0796 12.115 13.6688C12.0946 13.1076 12.2666 12.5563 12.6025 12.1063L11.4012 10.9038C12.2854 10.0571 13.4096 9.50437 14.62 9.32129C14.6217 9.20463 14.6192 9.09129 14.6125 8.98129C13.3144 9.16939 12.1079 9.75954 11.1625 10.6688L10.9587 10.4688C10.9016 10.5722 10.8474 10.6773 10.7963 10.7838L10.925 10.9125C9.85257 12.0483 9.2443 13.5444 9.22 15.1063H7.5125C7.53972 13.0892 8.3303 11.1575 9.725 9.70004L10.2663 10.2438H10.3438C10.4509 10.233 10.5552 10.2025 10.6513 10.1538L9.9625 9.46754C10.3286 9.11432 10.727 8.79626 11.1525 8.51754C11.1764 8.43277 11.2048 8.34932 11.2375 8.26754C11.3173 8.14593 11.4041 8.02907 11.4975 7.91754C10.8518 8.27306 10.2558 8.71227 9.725 9.22379L8.52 8.01879C10.1357 6.43947 12.2387 5.45385 14.4862 5.22254L14.4713 5.14754L14.4225 4.88879C11.7795 5.16815 9.34429 6.45067 7.61875 8.4721C5.89321 10.4935 5.00878 13.0998 5.14772 15.7539C5.28666 18.408 6.43838 20.9078 8.36555 22.738C10.2927 24.5682 12.8485 25.5894 15.5063 25.5913L15.5112 25.585ZM22.785 8.28629C24.5437 10.124 25.536 12.5628 25.56 15.1063H23.8475C23.8334 13.8401 23.528 12.5942 22.955 11.465L22.97 11.435L23.0875 11.4975L23.1163 11.4063L22.8187 10.8725L22.4563 10.3725L22.0287 10.0225C21.8824 9.84229 21.7298 9.66718 21.5713 9.49754L22.785 8.28629ZM20.6062 10.47L21.015 10.4875L21.1137 10.605L21.0638 10.7788L21.6275 11.1363L21.74 11.1225L22.4688 11.9563L22.7663 11.8513C23.2403 12.8719 23.4938 13.9811 23.51 15.1063H21.805C21.7975 14.6699 21.7443 14.2354 21.6462 13.81L21.725 13.7038L21.83 13.17L21.75 12.595L21.545 11.935L21.0688 11.2388L21.185 11.3L21.2425 11.2413L20.86 10.9825L20.835 11.0675L21.2175 11.6138L21.4325 12.06L21.5825 12.5063L21.6313 12.8038L21.71 13.3063L21.56 13.3175C21.56 13.3175 21.3963 13.0088 21.345 12.8825L21.42 12.7675L21.2725 12.56V12.3513L21.1675 12.22L21.0387 12.2363C20.9925 12.1498 20.9429 12.0652 20.89 11.9825L20.9825 12.0288L21.0063 12.0038L20.9562 11.8975L21.0688 11.835L21.0188 11.7725L20.8525 11.835L20.9137 11.5763L20.815 11.52L20.7275 11.7263C20.5422 11.4476 20.3349 11.1843 20.1075 10.9388L20.6062 10.47ZM20.2625 14.4675L20.5688 14.3L20.8813 14.2525L20.95 14.1038L21.1238 14L21.1912 13.85L21.2437 13.6C21.2691 13.689 21.2921 13.7786 21.3125 13.8688L21.1475 14.3613V14.5275L21.3875 14.2088C21.4386 14.5037 21.4666 14.8021 21.4713 15.1013H19.9837L19.95 14.9713L20.125 14.8338L20.1575 14.75L20.2337 14.6938L20.4363 14.6725L20.4575 14.5838L20.2625 14.4675ZM18.215 13.2963L18.365 13.26V13.225L18.215 13.1225L18.2675 12.8013L18.45 12.6175C18.5653 12.7475 18.6714 12.8854 18.7675 13.03L18.7038 13.2275L18.5362 13.1088L18.41 13.1425L18.4725 13.26H18.535L18.465 13.435L18.4175 13.365L18.215 13.2963ZM18.8687 18.96L18.4988 18.8563L18.3888 18.8963L18.1813 18.7375L17.985 18.6675C18.0812 18.5975 18.175 18.5175 18.2663 18.4475L18.5638 18.66L18.795 18.7838L18.91 18.8975L18.8687 18.96ZM18.6812 12.3813L19.8875 11.175C20.1682 11.4836 20.4174 11.8194 20.6312 12.1775L20.4825 12.2175L20.49 12.4875L20.9363 12.7725C21.0469 13.0203 21.1412 13.275 21.2188 13.535L21.14 13.65L20.9775 13.755L20.9363 14.005L20.8238 14.0675L20.7312 14.1775L20.6375 14.1425H20.4713L20.5675 14.0125L20.6375 13.6713L20.7475 13.6025L20.4363 13.2825L20.1938 13.365L20.1388 13.5925L19.99 13.7575L19.8312 13.6263L19.775 13.4863L19.865 13.43L19.915 13.5225L19.99 13.4938L19.9575 13.345H19.8512L19.8438 13.4075L19.7738 13.4213L19.395 12.9763L19.2675 12.88L19.3162 12.8263L19.4287 12.7875L19.325 12.7463C19.325 12.7463 19.1925 12.775 19.1763 12.775L19.2513 12.8713H19.0613C18.9484 12.6973 18.8213 12.5343 18.6812 12.3813ZM19.295 18.8L19.1325 18.6363L19.2575 18.4738L19.4137 18.1525L19.3538 18.0638L19.4575 17.8263L19.445 17.6113L19.3825 17.3888L19.2338 17.3375L19.1787 17.4625L19.09 17.4375C19.2288 17.242 19.3485 17.0335 19.4475 16.815L19.5963 16.75L19.6825 16.6338L19.7237 16.6813L19.8275 16.5563L19.745 16.4525L19.82 16.4313L19.96 16.4875H20.2225L20.3825 16.4038L20.8 16.2938L20.7213 16.1563L20.6938 15.9875L20.9175 16.0863L21 16.0363L20.9588 15.8638L20.69 15.9725L20.3925 15.91L20.1625 15.4413H21.4675C21.4117 16.893 20.8255 18.2739 19.82 19.3225L19.6425 19.1425L19.72 18.9025L19.58 18.3738L19.295 18.8ZM19.5262 22.1275L19.6863 21.7825L19.6237 21.6338L19.8612 21.4263V21.3013L19.6587 21.1738L19.825 20.8425L20.075 20.515L19.825 20.2463H19.6375L19.5212 20.0575C19.6221 19.9737 19.7213 19.8878 19.8188 19.8L21.025 21.0063C20.57 21.4375 20.0667 21.8146 19.525 22.13L19.5262 22.1275ZM21.0312 20.5363L21.165 20.3863L21.04 19.7263L20.9525 19.6925L21.0063 19.58L20.7213 19.4925L20.6662 19.7263L20.6375 20.0238L20.5775 20.0788L20.0575 19.5588C21.1256 18.4474 21.7471 16.9817 21.8037 15.4413H23.51C23.4546 17.435 22.653 19.3353 21.2638 20.7663L21.0312 20.5363ZM21.5013 21.005C22.9528 19.5104 23.7902 17.5252 23.8475 15.4425H25.5525C25.4971 17.9777 24.4806 20.3972 22.7087 22.2113L21.5013 21.005ZM11.2375 19.3525C11.1135 19.2247 10.9951 19.0917 10.8825 18.9538L10.935 18.5225L10.755 18.11L10.71 17.4625L10.5087 17.0688L10.55 16.825L10.3062 16.3563L10.0938 16.25L10.1788 16L10.0912 15.805L10.1788 15.58H10.4125L10.495 15.445H10.8937L10.955 15.5625L10.88 15.975L10.8325 16.0438L10.9813 16.37L10.8825 16.4238L10.815 16.3363L10.785 16.37L10.8538 16.5638L10.9712 16.7888H11.0262L11.0638 16.5688L11.0075 16.4938V16.3575L10.99 16.075L11.065 15.5788L10.9838 15.445H11.27C11.3265 16.457 11.7428 17.4155 12.4438 18.1475L11.2375 19.3525ZM10.1062 16.0188L9.94625 16.2713H9.66875L9.64625 16.255C9.59992 15.9872 9.57111 15.7166 9.56 15.445H10.0725L9.95 15.855L10.1062 16.0188ZM10.6675 14.8475L10.6988 14.5088L10.9012 14.3913L11.2625 14.455L11.3175 14.5213C11.2838 14.715 11.2654 14.911 11.2625 15.1075H10.8538L10.6675 14.8475ZM12.4037 16.1225L12.4887 16.08L12.7013 16.2475L12.605 16.3263L12.855 16.4938L12.85 16.315L12.9838 16.0938L13.1237 16.2425L13.2725 16.4475L12.9975 16.5038L13.1163 16.7388L13.2963 16.6438L13.2787 16.5688L13.4125 16.4788L13.4912 16.1063C13.5893 16.3241 13.7213 16.525 13.8825 16.7013L12.6775 17.9075C12.0865 17.2888 11.7153 16.493 11.6213 15.6425L11.8675 15.905H12.1L12.4037 16.1225ZM11.1625 11.145L12.3675 12.3513C12.1148 12.6288 11.9001 12.9386 11.7288 13.2725H11.645L11.475 13.325H11.4163L11.2362 13.4925L11.4637 13.445L11.6688 13.3925L11.6325 13.4713L11.4525 13.5813H11.3625L11.0975 13.7838L10.8412 13.7638L10.4713 14.4538L10.5437 14.5913L10.3438 14.8163L10.3112 15.1125H9.55625C9.57977 13.6363 10.1524 12.2218 11.1625 11.145ZM9.60375 20.2425L9.98625 20.4675L10.065 20.5213L9.78875 20.7975C9.65958 20.6642 9.53458 20.5259 9.41375 20.3825L9.60375 20.2425ZM9.22125 15.445C9.22125 15.61 9.2425 15.775 9.26 15.9375L9.05125 15.985L9.00875 16.1963L8.57375 16.75L8.585 17.51L8.13875 17.6588H7.89375C7.66338 16.9416 7.53545 16.1955 7.51375 15.4425L9.22125 15.445ZM7.5375 17.65L7.4375 17.63L7.34375 17.525L6.865 17.4825L7.01375 17.6825L6.5675 17.6L6.6825 17.4938L6.575 17.3863L6.255 17.5263L6.14 17.7375L6.185 18.2238L6.55375 19.0988L6.73125 19.375L6.83125 19.4125L6.55375 18.885L6.4925 18.615L6.555 18.55L6.5175 18.4L6.685 18.4238L6.9425 18.8125L7.005 18.8375V18.5538L7.11 18.615L7.1325 18.7638L7.40375 18.835L7.51625 18.755L7.555 18.7813V18.9888L7.67375 19.1375L7.82375 19.17L8.13875 19.7038L8.33 19.7575L8.39 19.5075C8.72222 20.0567 9.11648 20.5659 9.565 21.025L8.36 22.23C6.56788 20.419 5.53464 17.9921 5.47125 15.445H7.1775C7.19848 16.1928 7.31956 16.9344 7.5375 17.65ZM8.28125 8.25754L9.48625 9.46254C8.02923 10.9835 7.20289 13.0002 7.17375 15.1063H5.46875C5.49315 12.5482 6.49699 10.0968 8.27375 8.25629L8.28125 8.25754ZM20.63 7.63504L20.5275 7.46879L20.3038 7.35629L20.1287 7.48879L20.3538 7.60879L20.5925 7.79129L20.63 7.63504ZM19.5875 12.4475V12.5788L19.8838 12.4913L19.975 12.3113L19.7712 12.0438L19.88 11.88L20.155 12.0763L20.205 12.0363L20.1512 11.9975L20.0887 11.8788L20.2013 11.8125L20.0913 11.6638L19.8325 11.795L19.745 11.9575L19.695 12.0988L19.8075 12.29L19.7663 12.38L19.5875 12.4475ZM7.2525 20.0975L7.275 20.0213L7.12625 19.6875L6.945 19.6213L7.2525 20.0975ZM14.2275 13.6888C14.2275 13.975 14.4025 14.1763 14.7188 14.3513V14.2225L14.5188 14.0238L14.625 13.8313L14.7113 13.8075C14.7113 13.475 14.6988 13.1013 14.6963 13.0475H14.6813C14.3875 13.2113 14.2275 13.4075 14.2275 13.6888Z" fill="#868686"/>
</g>
<defs>
<clipPath id="clip0_30_238">
<rect width="30" height="30" fill="white" transform="translate(0.5 0.967529)"/>
</clipPath>
</defs>
</svg>
