<svg width="34" height="40" viewBox="0 0 34 40" fill="none" xmlns="http://www.w3.org/2000/svg">
<path d="M9.50008 26.6667C9.50008 26.6667 12.8334 25 17.0001 25M17.0001 25C21.1667 25 24.5001 26.6667 24.5001 26.6667M17.0001 25V36.6667M9.50008 35C9.50008 35 12.8334 33.3334 17.0001 33.3334C21.1667 33.3334 24.5001 35 24.5001 35M7.83341 30.8334C7.83341 30.8334 12.0001 29.1667 17.0001 29.1667C22.0001 29.1667 26.1667 30.8334 26.1667 30.8334M27.8334 18.3334V16.6667C27.8334 16.6667 23.6667 14.1667 17.0001 14.1667C10.3334 14.1667 6.16675 16.6667 6.16675 16.6667V18.3334M16.6434 10.8367C16.6434 10.8367 12.8267 8.33671 12.8267 5.21338C12.8267 2.79671 14.6951 0.838379 17.0017 0.838379C19.3084 0.838379 21.1667 2.79671 21.1667 5.21338C21.1667 8.33838 17.3601 10.8367 17.3601 10.8367H16.6434ZM32.8334 20.8334H1.16675V21.25C1.16675 21.25 2.00008 25 2.00008 30C2.00008 35 1.16675 38.75 1.16675 38.75V39.1667H32.8334V38.75C32.8334 38.75 32.0001 35 32.0001 30C32.0001 25 32.8334 21.25 32.8334 21.25V20.8334Z" stroke="#800080"/>
</svg>
