<svg width="19" height="10" viewBox="0 0 19 10" fill="none" xmlns="http://www.w3.org/2000/svg">
<path d="M4.84375 5.15438V9.11687M3.23125 8.36375C3.10056 8.59265 2.91163 8.7829 2.68364 8.91517C2.45564 9.04745 2.19671 9.11704 1.93312 9.11687C1.53668 9.11687 1.15645 8.95947 0.876 8.67926C0.595552 8.39904 0.437831 8.01895 0.4375 7.6225V6.65063C0.4375 6.45422 0.476186 6.25973 0.551348 6.07827C0.62651 5.89682 0.736677 5.73194 0.875558 5.59306C1.01444 5.45418 1.17932 5.34401 1.36077 5.26885C1.54223 5.19369 1.73672 5.155 1.93312 5.155C2.4875 5.155 2.97188 5.45687 3.23 5.905M18.5625 7.62188C18.5625 8.01854 18.4049 8.39896 18.1244 8.67944C17.844 8.95993 17.4635 9.1175 17.0669 9.1175C16.6703 9.11733 16.2901 8.95969 16.0097 8.67922C15.7294 8.39875 15.5719 8.01843 15.5719 7.62188V6.65C15.5719 6.25344 15.7294 5.87312 16.0097 5.59265C16.2901 5.31219 16.6703 5.15454 17.0669 5.15438C17.4635 5.15438 17.844 5.31195 18.1244 5.59243C18.4049 5.87292 18.5625 6.25334 18.5625 6.65M18.5625 9.11687V5.15438M14.0288 9.1175V6.64875C14.0286 6.2523 13.871 5.87214 13.5907 5.59181C13.3104 5.31148 12.9302 5.15392 12.5338 5.15375C12.1372 5.15375 11.7569 5.31124 11.4764 5.59159C11.1959 5.87194 11.0383 6.25219 11.0381 6.64875M11.0381 9.11687V5.15438M6.43313 3.3225H7.17625M7.24375 2.35625L7.635 2.19875M5.8575 0.9425L6.02313 0.554375M3.87813 0.9225L3.72 0.53125M2.46375 2.30875L2.07563 2.14375M5.96813 2.19875L6.49312 1.67375M4.84375 1.73313V0.990625M3.72 2.19875L3.195 1.67375M3.25437 3.3225H2.51188" stroke="#868686" stroke-width="0.5" stroke-linecap="round" stroke-linejoin="round"/>
</svg>
